<?xml version="1.0" encoding="utf-8"?>
<!-- Generator: Adobe Illustrator 24.1.0, SVG Export Plug-In . SVG Version: 6.00 Build 0)  -->
<svg version="1.1" id="Layer_1" xmlns="http://www.w3.org/2000/svg" xmlns:xlink="http://www.w3.org/1999/xlink" x="0px" y="0px"
	 viewBox="0 0 400 400" style="enable-background:new 0 0 400 400;" xml:space="preserve">
<g>
	<path d="M77.1,313.1c-0.2-4.1,1.6-8.2,5.4-12.3l5.4-5.8c3.8-4.1,7.8-6.3,11.9-6.4c4.1-0.1,8.2,1.8,12.4,5.6l10.6,9.8l-28.5,30.8
		L83.7,325C79.5,321.2,77.3,317.2,77.1,313.1z M107.2,299.4c-4.5-4.2-9-3.9-13.3,0.8l-5.7,6.2c-4.4,4.7-4.3,9.1,0.3,13.3l4.8,4.5
		l18.8-20.2L107.2,299.4z"/>
	<path d="M51.9,285.9L81,253.4l4.4,6.8l-6.5,7.2l7.9,12.3l9.2-2.9l4.4,6.8l-41.7,12.7L51.9,285.9z M73.8,272.9l-13.2,14.5l0.3,0.5
		l18.7-5.9L73.8,272.9z"/>
	<path d="M36.6,251.6L66.1,232l-0.2-0.6l-32.5,10l-2.3-7.6l40.2-12.3l4,13l-29.5,19.7l0.2,0.6l32.5-10l2.3,7.6l-40.2,12.3
		L36.6,251.6z"/>
	<path d="M60,148.6l7-16.3l6.3,2.7l-7,16.3L60,148.6z"/>
	<path d="M117,47.5l4.1,5.9l-10.5,7.2l19.6,28.7l-6.5,4.5L104,65.1l-10.5,7.2l-4.1-5.9L117,47.5z"/>
	<path d="M162.8,52.3c-0.8,2.6-2.4,4.8-4.7,6.5l13.6,12.3l-8.4,3L150.8,62l-6.5,2.3l5.3,14.7l-7.5,2.7L128,42.1l17.4-6.2
		c2.5-0.9,4.9-1.2,7.1-0.8c2.3,0.4,4.3,1.3,6,2.8c1.7,1.5,3.1,3.5,3.9,5.9C163.5,46.8,163.6,49.6,162.8,52.3z M141.9,57.6l9.2-3.3
		c1.8-0.6,3-1.7,3.7-3.1c0.7-1.4,0.8-3,0.2-4.7c-0.6-1.7-1.7-2.9-3.1-3.5c-1.5-0.6-3.1-0.6-4.8,0l-9.2,3.3L141.9,57.6z"/>
	<path d="M191.5,27.1L206.8,68l-8.1,0.7l-3.3-9.1l-14.6,1.2l-1.7,9.5l-8.1,0.7l8.1-42.8L191.5,27.1z M192.9,52.6l-6.7-18.5l-0.6,0.1
		l-3.5,19.3L192.9,52.6z"/>
	<path d="M220.6,28.2l-4,41.8l-7.9-0.8l4-41.8L220.6,28.2z"/>
	<path d="M253.3,35.4L253,79l-7.8-2.2l0.2-9.7l-14.1-4l-5,8.3l-7.8-2.2L241.4,32L253.3,35.4z M245.5,59.6l0.3-19.6l-0.6-0.2
		l-10.1,16.8L245.5,59.6z"/>
	<path d="M287.4,50.9l-9.1,34.3l0.5,0.3l17.7-29l6.8,4.1l-21.9,35.8l-11.6-7.1l9.1-34.3l-0.5-0.3l-17.7,29l-6.8-4.1l21.9-35.8
		L287.4,50.9z"/>
	<path d="M330.8,128l7.5,16.1l-6.2,2.9l-7.5-16.1L330.8,128z"/>
	<path d="M346.9,234.3c-2-2-3.1-4.4-3.6-7.2l-17.3,6.3l1.3-8.9l16.5-5.4l1-6.8l-15.4-2.2l1.1-7.8l41.6,5.9l-2.6,18.3
		c-0.4,2.6-1.2,4.8-2.6,6.7c-1.4,1.8-3.1,3.2-5.2,4c-2.1,0.8-4.5,1.1-7.1,0.7C351.4,237.5,348.9,236.3,346.9,234.3z M351.9,213.3
		l-1.4,9.7c-0.3,1.9,0.1,3.4,1,4.7c0.9,1.3,2.3,2.1,4.1,2.3s3.3-0.1,4.6-1.1s2-2.4,2.2-4.3l1.4-9.7L351.9,213.3z"/>
	<path d="M359.2,254.3c1.5,4,1.1,8.5-1,13.4c-2.1,4.9-5.2,8.2-9.1,9.8c-3.9,1.6-8.3,1.4-13.2-0.7l-9.2-4c-4.9-2.1-8-5.2-9.5-9.2
		c-1.5-4-1.1-8.5,1-13.4c2.1-4.9,5.2-8.2,9.1-9.8c3.9-1.6,8.3-1.4,13.2,0.7l9.2,4C354.6,247.2,357.8,250.3,359.2,254.3z
		 M329.8,247.7c-2.2,0.8-3.9,2.6-5.1,5.3c-1.2,2.7-1.3,5.1-0.4,7.3s2.7,3.9,5.4,5.1l9.7,4.2c2.7,1.2,5.1,1.3,7.3,0.5
		c2.2-0.8,3.9-2.6,5.1-5.3c1.2-2.7,1.3-5.1,0.4-7.3c-0.9-2.2-2.7-3.9-5.4-5.1l-9.7-4.2C334.4,247,332,246.9,329.8,247.7z"/>
	<path d="M333.6,307l-31.3-16.1l-0.4,0.4l19.1,29.5l-9.1,10.1l-31.2-28.2l5.1-5.7l25.1,22.7l0.4-0.4l-19-29.4l7.5-8.3l31.2,16
		l0.4-0.4l-25.1-22.7l5.1-5.7l31.2,28.2L333.6,307z"/>
	<path d="M279.6,351l-31-30.7l7-4l6.8,6.9l12.7-7.2l-2.4-9.4l7-4l10.6,42.3L279.6,351z M267.7,328.6l13.8,14l0.5-0.3l-4.9-19
		L267.7,328.6z"/>
	<path d="M244.6,364.6l-18.1-30.4l-0.6,0.1l8.3,32.9l-7.7,1.9l-10.3-40.7l13.2-3.3l18.1,30.4l0.6-0.1l-8.3-32.9l7.7-1.9l10.3,40.7
		L244.6,364.6z"/>
	<path d="M176,345.5l-17.3-3.9l1.5-6.7l17.3,3.9L176,345.5z"/>
</g>
</svg>
