<?xml version="1.0" encoding="utf-8"?>
<!-- Generator: Adobe Illustrator 24.1.0, SVG Export Plug-In . SVG Version: 6.00 Build 0)  -->
<svg version="1.1" id="Layer_1" xmlns="http://www.w3.org/2000/svg" xmlns:xlink="http://www.w3.org/1999/xlink" x="0px" y="0px"
	 viewBox="0 0 1336.7 1336.7" style="enable-background:new 0 0 1336.7 1336.7;" xml:space="preserve">
<style type="text/css">
	.st0{fill-rule:evenodd;clip-rule:evenodd;fill:#F4ED5B;}
	.st1{fill-rule:evenodd;clip-rule:evenodd;fill:#222222;}
</style>
<g id="react-group-267">
	<g id="react-group-268">
		<path id="react-path-269" class="st0" d="M582.4,1001.5c41.6,35,64,88.2,73.6,140.6c1.3,7.3,2.4,14.6,3.2,21.9
			c0.2,1.5-0.3,6.6,0.7,7.8c0.8,0.9,4.7,1.4,5.8,1.7c4.8,1.4,9.7,2.9,14.5,4.3c14.1,4.2,28.2,8.4,42.3,12.5
			c14.3,4.2,28.6,8.5,42.8,12.7c4.9,1.4,9.7,2.9,14.6,4.3c1.5,0.4,6.1,0.9,7.2,2.1c0.8,0.9,0.3,4.4,0.3,5.6l0.5,19
			c0.4,14.5,0.8,29.1,1.2,43.6c0.1,2.7,0.1,5.5,0.2,8.2l-88.2-6.7c-7.6-0.6-16.1,0.6-22.4-4l-41.4-30.5c-2.8-2.1-6.1-5.5-9.4-6.8
			c-5.7-2.3-13.7-2.2-19.8-3.2c-8.5-1.4-17-2.8-25.5-4.2c-0.7-0.1-4-0.2-4.4-0.8c-0.7-0.8,0.6-5.6,0.7-6.6
			c0.9-8.9,1.9-17.7,2.8-26.6c0.1-0.8,1.1-4.8,0.6-5.5c-0.4-0.6-4.4-0.5-5.1-0.6c-8.8-1.1-17.6-2.2-26.4-3.2l-12.2-1.5
			c-0.8-0.1-5.4-1.3-6.1-0.8c-1.2,0.9-1.2,8.3-1.4,9.8l-3.3,25.3l-6.3,47.8c-0.6,4.3-2.7,2.6-7,2.3l-26.9-2.1
			c-3.7-0.3-5.9-0.3-9.1-2c-6.5-3.5-13-7-19.5-10.5c-13.5-7.3-26.9-16.1-41-22.1c-9.4-4-20.9-5.4-30.8-7.8l-48.7-12
			c-10.6-2.6-21.9-2.7-32.7-3.8c-4.6-0.4-9.2-0.9-13.8-1.4c-2.3-0.2-6.2,0.2-8.3-0.8c-2-0.9-2.4-3.4-3.8-5.4
			c-5.2-7.3-13.5-12.1-21.6-15.5c-6.5-2.8-13.4-4-20.1-6.3c-2.4-0.8-4.7-2.1-6.2-4.2c-6.8-10.1,8.8-26.1,14.8-32.6
			c10.6-11.8,22.6-22.3,34.9-32.4c2.3-1.9,4.6-3.7,7-5.5c22.1-42.2,54.7-82.2,93.2-110.1c29.9-21.7,65.5-35.6,102.9-32.7
			C520.4,965.6,554.9,978.4,582.4,1001.5z M449,1118.2c-1.8,3.9-3.9,7.7-4.6,11.9c-1.5,8.4-2.5,16.9-3.8,25.4
			c26.5,2,53,4.1,79.5,6.1c-0.7-11.9-1.9-23.7-3.4-35.5c-2.3-18.8-4.6-39-12.1-56.6c-1.9-4.4-4.7-11-10.1-11.9
			c-6.5-1.2-12.7,5.9-16.4,10.3C465.7,1082.6,457,1100.8,449,1118.2z"/>
		<path id="react-path-270" class="st1" d="M110.9,724.9c20.8,0.2,30.3,19.6,39.7,35.5c11.1,18.5,20.3,38.3,27.5,58.6
			c4,11.1,5.8,22.3,7.6,33.9c0.8,5.3,1.5,19.8,7.3,21.7c1.3,0.4,3.3-0.1,4.8,0.3c2.1,0.6,3.8,1.8,5.3,3.4c3.1,3.4,4.4,8.4,4.5,12.9
			c0,4-0.6,8.7-4.2,11.1c-0.9,0.6-7.3,3.9-7.5,2.9c0.1,1.8-0.8,3.6-1,5.4c-0.5,3.2-0.5,6.4-1.1,9.6c-1.1,5.9-2.3,12.3-4.8,17.8
			c-3.9,8.7-12.2,11.6-20.7,14.2c1.5,2.5,2.5,7,5.1,8.7c1.8,1.2,3.3,0.4,5.3,0.2c2.7-0.4,5.4-0.3,8.1-0.2c12,0.5,22.7-1,34.3-4
			c23.1-5.8,45.8-11.2,68.4-18.8c44.2-14.9,89.2-28.4,131.1-49.1c10-4.9,19.2-10.1,30-13.2c9.5-2.7,18-7.3,27.4-10.1
			c8.9-2.6,16.6-11,23.6-16.9c8.2-6.9,14.4-16.1,22.2-23.5c8-7.7,16.8-14.7,24.9-22.3c8.7-8.1,18.4-15.3,28.2-21.9
			c18.6-12.6,38-21,60.6-21.4c12.6-0.2,24.8-0.5,37,3.1c10,2.9,22.7,6.9,29.9,14.8c6.8,7.4,7.8,16.9-0.7,23.2
			c-9,6.5-20.3,9-30.5,12.9c8.3,4.7,17.3,9.2,23.7,16.6c4.8,5.6,9.1,15.8,3.4,22.3c-8.6,9.7-28.6,4.4-39.4,2.6
			c5.6,6.5,11.9,15.7,8.9,24.7c-2.3,6.8-9.6,8.9-16.2,9.1c-18,0.7-34.7-10.1-49.9-18.1c-3-1.6-8.2-5.1-11.7-4.8
			c-2.2,0.2-1.7,0.9-2.4,3.1c-0.7,2-1.5,3.9-2.5,5.7c-3.6,6.4-9.2,11.4-15.1,15.5c-6.2,4.3-12.9,7.8-19.6,11.2
			c-4.3,2.2-15.9,6.1-17,11.4c-0.6,3.2,3.6,8.7,4.7,11.6c2,5.3,2.2,10.2,2.3,15.8c0.1,4.9,1.1,10.5-1.2,15.1c-2,4.1-6.1,6.4-9.6,9
			c15.9,9.4,32.8,17,48.1,27.4c14.6,10.1,28.7,22.3,40.2,35.9c11.8,13.9,18.9,30.4,24.7,47.5c6,17.8,12.6,36.1,15.3,54.7
			c1.3,8.8,2.4,17.9,2.4,26.8c0,5.4-1,11.4,5,13.4c5.7,1.8,12,1.5,17.9,2.5c10,1.7,19.8,4,29.7,6.3c10,2.3,20.1,4.5,30.1,7
			c8.9,2.2,18.1,3.8,26.7,6.9c6.3,2.3,14.1,4.8,19.4,8.9c2.8,2.2,4.6,5.5,4.6,9.1c0,1.7-0.5,3.3-0.4,5c0.1,1.5,0.6,2.6,0.6,4.2
			c-0.2,2.9-2.2,6.5-0.4,9.3c1.6,2.5,5.4,2.6,8,2.9c7.1,0.7,14.2,1.4,21.2,2.5c5.8,1,10.9,2.8,12.8-3.9c1.9-6.8,3.7-13,6.5-19.5
			c7.2-16.5,19.9-29.8,32.4-42.6c6.5-6.6,13.5-12.8,21-18.3c7.4-5.4,14.6-8.9,23.1-12c3.7-1.3,7-3,10-5.5c2.8-2.3,5.2-5.3,9-5.9
			c6.2-1.1,11.7,4.1,15,8.7c3.7,5.1,6.6,11.8,6.4,18.3c-0.2,7.5-5.7,13.2-10.5,18.4c-12.6,13.6-24,27.9-32.1,44.7
			c-3.9,8.1-7.7,16.1-12.2,23.9c-4.6,8-6.9,16.3-9,25.3c-1.7,7.3-2.4,14.9-4.2,22.2c-2.1,8.6-7.6,7.9-15.2,7.9
			c-17.8,0.1-36.6,1.8-53.7-4.5c-3.8-1.4-5.8-4.1-9.2-5.9c-3.2-1.7-7-1.3-10.5-1.3c-3,0-6.1-0.6-9.1-0.6c-4.1,0-4.3,1.3-6,4.1
			c-1.2,2-2.8,3.9-5.3,4.8c-3,1-3.9-1-6.8-1.8c-3.6-1.1-7.4,0.7-11.1,0.2c-3.1-0.4-5.8-1.9-8.9-1.8c-1.9,0.1-9,3.8-7-0.7
			c-4.3,2.8-8.8,1.2-13.6,1.4c1-2.6-1.6-1.2-3.4-2.1c-1.6-0.8-0.9-2.3-3.4-1.7c-0.4,0.1-0.4,1.2-0.6,1.3c-1.1,0.4-2.1,0.8-3.4,0.9
			c-5.1,0.2-9.9-2.2-15-2.1c-1.9,0-3.6,0.2-5.5-0.5c-0.4-0.1-2.8-1.6-2.2-1.5c-3.5-0.4-5.8,1.8-8.6-1.4c-2.7,3.9-11,1.1-14.9,0.9
			c-9.9-0.5-19.9,0.6-29.8,0.7c-19.5,0-38.9-1.1-58.4-1.6c-19.3-0.5-38.2-1.8-57.4-4.2c-8.6-1.1-16.9,0.1-25.5,0.1
			c-3.8,0-7.7-1.3-11.5-0.9c-3.6,0.4-6.5,3-9.8,4.2c-17.4,6.3-36.8-1.5-53.9-5c0.6,7.8,12.8,18.8,3.2,25.5c-8,5.6-20.5-4-28.4-6.1
			c2.5,8.7,5.8,22.2-7.9,21.9c-11.3-0.3-23.6-6.3-34.1-10.1c-24.2-8.6-47.4-18.8-72.6-24c-12.4-2.6-25.3-2.7-37.6-5.4
			c-4.2-0.9-8.7-3.3-12.7-0.8c-2.4,1.5-3.1,3-6.2,3.4c-2.9,0.5-6.1,0-9,0.1c-27.4,0.7-55.1,2.2-82.5,0.5c-14-0.9-27.6,0.1-41.6-1.9
			c-7.1-1-13.9-3-21-4.5c-3.1-0.6-6.1-1-9.2-0.8c-1.3,0.1-2.7,0.7-4,0.5c-0.4-0.1-2.5-0.8-2.4-0.8c-3.6,0.3-6.8,3.7-8.4-1.3
			c-2.7,4.8-9,0.3-12.5-1c-5.1-1.9-8.9-2.5-11.4-8c-2.2-4.8-2.9-10.5-4.1-15.6c-0.6-2.7-1.3-5.5-1.2-8.3c0.1-2.9,1.3-4.2,2.2-6.9
			c-4.7,2.2-1.8-9.2-2-11.1c-0.7-7.5-2.8-14.5-1.1-22.1c1.8-8.5,0.4-18,1.2-26.9c1-10.1,3-20.1,3.9-30.2c0.8-8.7,4.1-17.3,5.8-25.9
			c0.9-4.3,1.6-8.6,2.5-12.8c0.8-4,3.4-6.6,3.5-10.8c0.1-2.3-0.4-3.4,0.7-5.5c0.8-1.5,2-2.7,2.7-4.4c1.7-4.4,2.6-9.2,3.5-13.8
			c1.7-8.3,3.2-16.7,5.1-24.9c2.3-9.8,7-19,10.5-28.3c2.6-6.8,4.4-13.9,7-20.7c1.4-3.7,4.6-13.5,10-13c-1.7-3.2-0.4-4.8,1.4-8.1
			c0.4,0.9,0.7,1.7,1.1,2.6c0.7-3.7,3-5.1,5.5-7.7c1.5-1.6,2.6-3.2,4.3-4.6c1.2-1,2.7-1.5,3.5-2.9c1.2-2.1,0.6-6,0.7-8.3
			c0.2-3.9,0.4-7.7-0.4-11.5c-0.6-2.8-1.6-6.5-4.5-7.7c-3.2-1.4-7.3-0.3-10.7-1.6c-8-3.1-13.9-11.3-13.6-20c0.3-8.6,9.1-14.7,7-23.1
			c-2.5-10.2-7.4-20-10.7-29.9c-6.8-20.2-12.9-41.1-17.8-61.9c-2.2-9.4-3.2-19.7-0.3-29.1c2.6-8.1,8-15.1,13.9-21
			c12-12,27.5-23.3,45.1-23.8l0.6,0H110.9z M281,1212.5c-3.1,0.5-5.5,2.3-8.8,2.3c-3.4,0.1-9.6-3.8-12-1c-2,2.2-1.5,9.1-2,11.9
			c-0.7,4.1-1.6,8.2-2.5,12.2c-2.2,9.5-4.8,18.8-7.2,28.2c27.2,1.5,54.7,4,80.7,12.5c12.7,4.2,24.7,10.2,37.3,14.6
			c5.6,2,11.2,4,16.8,6c4.3,1.6,10.3,4.7,14.9,3c-3.5-8.7-14.1-10.4-20.4-16.1c-5.7-5.1-7-16.6,3.4-14c6,1.5,11.4,4.9,17.3,6.7
			c1.7,0.6,15.5,6,16.4,4.3c-8.6-6-22.9-10-22.2-23c0.6-12,16.1-6.4,23.3-4.8c6.5,1.4,13.1,2.3,19.7,3.6c8,1.6,15.8,4.1,23.8,5.3
			c1.6,0.2,11.6,3.5,11.9,2.3c0.4-1.5-7.5-5.1-8.6-5.7c-13-6.9-25.7-13.2-40-16.9c-6.1-1.5-13.1-3.6-19.4-3.4
			c-2.9,0.1-5.5,1.4-8.3,0.1c-3.8-1.8-6-4.3-10.3-5.4c-15.3-4-31.2-6.8-46.7-9.8c-7.8-1.5-15.5-3-23.1-5.4c-8.1-2.5-16.2-5.5-24.6-7
			C287.4,1212.8,284,1211.9,281,1212.5z M767.6,1272.6c-3.9,1-8,1.3-11.7,3.1c3.8,3.4,13.2,2.9,17.9,2.4c5.9-0.5,5.1-6,5.1-10.5
			C775.4,1269.7,771.7,1271.5,767.6,1272.6z M679.3,1186.1c-0.9,1.3,1.2,5.1,1.8,6.2c2.7,5.1,11,14.2,3.7,19.6
			c-5.2,3.8-14.4-1.4-19.9-2.3c-3.9-0.6-9.4,0.9-12.5-2.1c-4.2-4.1-0.1-10.4,2.3-14.3c-16.3,1.7-32.4,3.3-48.8,3.4
			c-4.2,0-8.4,0-12.6,0.2c-0.8,0-5.6-0.1-6.3,0.4c-0.2,0.2-0.5,3.4-0.5,3.7c-0.7,4.8-2.3,10-1.1,14.9c0.9,3.6,6.1,9.3,10.5,7.9
			c3.8-1.3,4.5-10.9,6.8-14.1c2.3-3.1,7.1-9.2,11.6-8.2c2.8,0.6,4.2,3.8,5,6.2c0.4,1.2,0.3,2.7,1.1,3.8c1.2,1.5,2.7,0.8,4,2
			c1.6,1.4,2.5,3.2,3,5.3c0.6,3-0.4,3.1,2.8,3.3c4.2,0.2,8.8-1.8,13-2.5c10.8-1.7,23.5-3.1,34.4-1.3c18,3,28.7,18.8,30.8,36.1
			c0.5,3.9,0.4,7.6,0,11.4c-0.4,4.9,0.8,5.9,5.4,6.3c8.9,0.8,17.7,1.9,26.6,2.8c1.4,0.1,5.9,1.1,7-0.2c1.3-1.5,0.2-6.7,0.2-8.5
			c0.2-6,2.8-12.2,5-17.7c1.7-4.4,5.5-16,12.1-13.9c6.5,2,9.8,12.2,13.5,17.3c0-6.2-0.5-12.5-0.6-18.7c0-4.9,0.8-9.3,1.2-14.1
			c0.6-6.7-7.6-8.6-12.8-10.2c-5.2-1.5-12.8-3.9-17.6-0.4c-4.6,3.3-8.6,12.8-15.1,12.8c-7.3,0-8.8-12.6-10.9-17.6
			c-4.2-9.9-16.1-10.3-25.3-12.7c-3.1-0.8-6.1-1.7-9.1-2.7c-1.6-0.6-4.7-2.6-6.5-2.6C680.3,1185.8,680.1,1185,679.3,1186.1z
			 M796.4,1243.2c-3.2,0.6-2.2,4.3-2.3,7.1c-0.2,3.8-0.9,7.6-1.2,11.5c-0.1,1.6-1,8,0.4,9.2c1,0.9,3.4-0.2,4.6-0.2
			c2,0,4.1,0.5,6,0.8c4.9,0.7,10,1.5,15,1.1c4.3-0.3,7.9-1.4,9.5-5.7c1.4-3.7,2.2-9.8,0.5-13.6c-2.2-4.9-9.2-4-13.7-5
			c-3.8-0.8-7.6-1.9-11.4-3.1C802,1244.7,798.4,1242.8,796.4,1243.2z M466.8,1163.4c-7,0.4-14.5,10.4-21.6,6.2
			c-4.4,10.6-8,21.5-12.4,32.1c-3.9,9.5-10.3,17.4-15.5,26.1c20.3,5.4,39.4,14.1,58,23.7c2-5,4.1-10.1,5.8-15.2
			c1-3.2,1.4-7.3,3.5-10c5.7-7.6,12.1,5.2,15.1,9c4,5,12.2,11.5,8.3,18.8c-3.3,6.2-12.7,5.5-18.6,6.8c2.5,3.9,4.9,4.2,9.2,4.3
			c4.2,0.1,8.8,1.4,12.9,0.6c4.4-0.8,4.6-4.4,4.9-8.4c0.5-5.9,1.6-11.8,2.4-17.7c1.7-12.4,3.9-24.8,5.8-37.2
			c0.3-2.2,2.2-8.5-1.8-8.8c-3.6-0.2-4.5,6.4-6.3,8.4c-2.6-2.9-0.8-8.4-0.4-11.8c0.4-3.5,0.7-7.1,0.8-10.7c0.1-2.9,0.5-7.6-2.4-9.4
			c-1.6-1-3.7-0.4-5.5-0.3c-2.8,0-5.6-0.3-8.4-0.8C490,1167.3,477.9,1162.8,466.8,1163.4z M587.1,1241.2c-7.7,3.3-14.1,6.2-21.9,1.6
			c-3-1.7-8.6-5.9-10.5-1.1c-2.8,7.1,7.5,11,12.1,12.9c9.3,3.7,17.3-1.2,26-4.1c6.8-2.3,12.5-1.1,18.4,2.6
			c2.8,1.7,11.9,7.1,10.3-0.9c-0.9-4.6-6.6-9.1-10.5-11.4C603.5,1236.3,594.8,1237.9,587.1,1241.2z M872.4,1196.9
			c-5.9,2.6-9.2,9.6-9.6,15.8c-0.4,7.5,4.5,12.5,7,19c2.1,5.3-1.3,6.4-5.5,8.5c-3.2,1.5-9.1,6.2-4.3,9.3c3.1,2,9.9,1.3,13-0.5
			c5.5-3.1,6.5-10.4,5.5-16.1c-1.2-6.7-7.2-10.7-8.8-17c-1.6-6.5,4.4-11.1,10.1-12c2.8-0.4,9.1,0.5,6-3.9
			C883,1195.7,876.7,1195,872.4,1196.9z M487,1187.4c5.6,1.3,15.3,2.8,14.4,10.7c-0.8,7.1-13.2,11.5-18,15.3
			c-5.3,4-10.7,10.3-17.3,12.2c-10.2,2.8-9-16.1-8.9-21.9c0.1-4.4,0.9-9,0.5-13.4c-0.3-3.2-0.1-9.7,5.3-9.4
			C471.3,1181.3,479,1185.6,487,1187.4z M476.6,970.3l-0.2,0c-2,0.2-7.2,0.5-8.7,1.9l0,0l0,0c0.6-0.5,0,3.1,0,3.1
			c-1.3,4.2-4.6,7.7-6.9,11.3c-5,8.1-10.1,16-15.1,24.1c-2.7,4.4-8.7,13.9-14.4,7.9c-3.9-4.1-4.5-11.4-6.1-16.6
			c-1.5-4.6-3.8-15.4-9.6-16.2c-6-0.8-14.3,7-19.1,10c-9.1,5.8-18.3,11.6-26.6,18.5c-8.2,6.9-14.8,15.1-21.2,23.6
			c-7.6,10-15.3,19.8-23.1,29.7c-3.8,4.8-7,10-10.6,15.1c-3.1,4.4-6.9,8.5-8.8,13.7c7.9,2.7,16.2,6,10.3,15.8
			c-5.6,9.4-16.6,16.3-25.1,22.6c-4.1,3-8.1,6.7-13,8c-5.4,1.5-8,2.8-11.2,7.6c-5.7,8.7-10.1,17.7-16.9,25.7c-3.4,4-6.3,6.1-11.6,6
			c-5-0.1-10-1.7-15-2.3c-12.9-1.8-25.8-3.7-38.7-5.8c-7.7-1.3-21.1-0.4-25.6-8.2c-2.4-4.1-1.9-9.3-1.3-13.8
			c0.9-6.4,2.1-12.8,3.2-19.2c1.2-7.1,2.8-14.2,3.3-21.4c0.5-6.8-0.6-13.7-0.4-20.4c0-0.7,0.6,0.5,0.6-1.5c-0.2-0.6-0.6-1.1-1.1-1.5
			c-0.7-0.5-0.9-1.2-0.5-2.2c-0.5-2.7,0.4-5.7,0.1-8.4c-0.1-0.7-1.8-7.6-0.5-7.1c-2.7-1.2-2.4-5.1-2.7-7.5
			c-3.4,1.6-3.3,10.1-3.5,13.1c-0.5,6.4-0.6,12.8-1.1,19.2c-1.4,19.8-8.4,39.8-6.5,59.7c0.4,4.4,0,9,1.6,13.2
			c2.2,5.8,6.4,4.9,11.5,6.1c6.1,1.4,12.1,3.7,18.3,5.1c6.9,1.6,13.9,3.1,20.9,4.5c12.7,2.6,25.3,4.1,38.2,5.6
			c5.9,0.7,11.5,1.9,17.1,3.8c5.7,1.9,11.8,2.7,17.1,5.5c10.5,5.5,22,5.5,33.7,7.4c13.5,2.2,27.1,4.4,40.7,6.6
			c5.9,0.9,11.8,1.9,17.6,3.4c2.5,0.6,5.1,1.9,7.7,2c3.7,0.2,3.1-2.1,3.4-5.1c0.4-4.1,0.9-10.6,4.9-13.1c3.3-2,10,0.7,13.4,1.4
			c3.6,0.7,11.6,4.1,15.1,2.3c4.2-2.2,7.1-10.5,8.8-14.6c5.5-13.3,10.6-27.5,14.1-41.4c-2-0.8-9.3,17.2-12.2,19.1
			c-5,3.3-12.1,2.1-16.4-1.9c-4.9-4.6-6.2-12.4-8.8-18.4c-3.2-7.5-7.1-14.8-10.2-22.4c-1.9-4.7-4-11.5-0.3-15.8
			c3.6-4.2,10.5-2.5,15.2-1.8c7.7,1.1,15.4,2.3,23.1,3.6c4.6,0.8,14,5.2,17,0.2c1.4-2.3,1.4-5.5,1.9-8.1c0.8-3.8,2.2-7.4,3.7-11
			c5.2-12.8,9.9-33,23.2-40c3.9-2,12.7-2,15.5-5.3c0.9-1.1,0.6-3.7,0.8-5c0.8-4.7,2.8-8.9,5.3-12.8c4.1-6.5,10.1-10.9,14.7-16.9
			c1.5-1.9,2.5-5.2,5.1-5.8c3-0.7,5.3,2.2,6.8,4.3c5,6.8,6.5,14.8,9.5,22.5c2.4,6.2,8.4,15.2,3.8,21.8c-5.7,8-19.4-2.5-27.1,0.1
			c9.2,25.3,15.1,51.6,18,78.3c1.2,11.2,3.5,23,3.2,34.3c-0.1,7.3-1.4,15.5,8.2,13.9c11-1.7,22-3.9,33.2-3.4
			c5.7,0.2,9.1-0.1,12.9-4.7c3.8-4.6,6.8-9.7,10.7-14.2c8.8-10.1,10.2,8.5,11.9,13.7c2.4,7.6,11.5,4.3,17.7,4.1
			c6.5-0.2,13.2,0.3,19.8,0.6c3.5,0.1,10.5,2.2,13.8,0.6c3.5-1.7,1.8-7.6,1.5-10.7c-0.4-4.6-0.3-10.4-2.9-14.3
			c-2.7,3.8-6.5,13.2-12.6,11.6c-5.3-1.4-6.6-11.4-7.6-15.8c-1.5-6.4-4.6-13.2-4.1-19.8c0.3-3.9,2.2-7.7,6.2-8.9
			c4.2-1.3,8.5,0.9,12.7,0.6c-2.7-11.3-6-22.2-11.6-32.4c-6.6-12-13.9-23.6-21.1-35.2c-1.7,9.2,2.3,18.8,0.2,28
			c-3.4,15-15.3-2.1-20.6-6.3c-5.7-4.6-11.8-8.7-17.6-13.1c-4.5-3.4-9.5-8-7.9-14.2c3-11.5,21-12.1,30.2-14.9
			c-11.9-12.9-23.7-26.7-38.6-36.1c-7.2-4.5-8.7-1-13.9,3.8c-4.3,4-8.8,4.9-10.3-1.5c-1.1-4.8,0.4-10.6-3-14.6
			c-3.9-4.7-12.3-6-17.7-8c-8.1-2.8-16.5-4.1-25-4.9C485,970.2,480.8,969.9,476.6,970.3z M536.5,1198.7c-1,1.9-0.8,5.5-1.1,7.6
			c-0.4,2.7-1.1,6.3,0,8.9c1.3,3.1,2.7,2.7,5.5,2.2c4.2-0.7,8.4-1.3,12.6-1.9c5.7-0.8,13-0.5,18.3-2.8c4-1.6,5-6.8,5.9-10.7
			c1.2-5.3-1.4-5.9-6.5-5.6c-4.2,0.3-8,0.9-12.2,0.5c-4.8-0.4-9.5-0.9-14.3-0.9C541.8,1196.2,538,1195.9,536.5,1198.7z
			 M330.7,1132.5c2.7,0.8,4.9,7.3,6,9.5c2.4,4.9,4.5,9.9,6.5,15c2.9,7.2,20,41.9-0.6,36.8c-8.2-2-15.2-5.9-23.8-6.3
			c-5.5-0.2-14.6,0.9-18.5-4c-4.6-5.8,1.7-13.3,5-18.1c5.3-7.8,10-16,17-22.4C324.7,1140.8,326.8,1131.3,330.7,1132.5z
			 M480.5,1068.4c-6.7,3.2-10.5,9.7-13.2,16.3c-3.8,9-7.3,18.4-10.2,27.8c-2.9,9.2-4,18.7-6.5,27.9c-0.5,1.7-2.4,6.2-0.8,7.8
			c1.2,1.2,5.2,0.5,6.7,0.4c8.3-0.4,15.9,0.5,24.2,1.3c11.5,1.1,22.9,1.4,33.8,5.7c-2.2-21.3-5-42.6-9.7-63.5
			c-1.6-6.8-2.1-15.5-5.4-21.8C495.7,1063.3,486.4,1065.5,480.5,1068.4z M554.8,1101.4c4.2,1.4,6.9,8.7,8.8,12.2
			c2.7,5.1,5.4,10.2,7.4,15.6c1.9,5.1,6.2,13,0.3,16.9c-2.2,1.4-5.4,1.3-7.9,1.4c-4,0.2-8,0.7-12,0.8c-4.2,0.1-8.4-0.3-12.7-0.3
			c-2.7,0-5.8,0.4-8.4-0.7c-7.4-3.1-3.8-12-0.7-16.8c4.4-6.8,10-12.7,14.5-19.5C546.2,1107.9,549.9,1099.7,554.8,1101.4z
			 M313.3,1039.4c-16.5,5-32.7,5.2-49.6,5.2l-4.2,0c4.1,14.8,8.8,29.5,12.6,44.4c1,4,2.9,22.6,9.9,14.1c3-3.7,4.9-9,7.4-13.1
			c3.8-6.3,7.6-12.6,11.5-18.8c8-12.7,16.6-25.2,26.4-36.6C322.2,1034.9,317.9,1038,313.3,1039.4z M373.6,1029.9
			c1.9,0.4,4.1,4.4,5.8,5.6c7.6,4.9,10.5,15.8,13.5,24c2.1,5.8,6.1,14.7-0.4,19.2c-3.9,2.7-9.8,1.9-14.2,1.2
			c-5.6-0.9-10.9-2.6-16.4-3.6c-4.3-0.8-8.7-1.2-13-1.5c-3.4-0.3-8.2,0.6-11.2-1.3c-14.4-9,19.9-32.2,25.2-36.1
			C365.1,1035.8,370.7,1029.3,373.6,1029.9z M163.4,845.8c-7.4,4.2-10.8,12.9-18.7,16.7c-7.5,3.6-16.2,3.1-24.2,2
			c-5.8-0.8-15-2.6-19.2,2.9c-2.8,3.6-1.5,8.8-0.5,12.8c1.7,6.4,9.9,23.4-1.8,24.8c-4.2,0.5-7,0.3-10.9,2.4
			c-2.9,1.6-7.7,4.1-8.4,7.8c-0.7,3.9,3,6.6,6.4,7.3c4.1,0.9,4.8-0.5,6.7-3.4c4.5-7,11.1,2.2,13.7,6.7c5.1,9.1,5.9,18.9,7.7,28.9
			c0.5,2.5-0.4,3.1,2.4,4c2.9,1,6.3-0.3,9.3,0c9.4,0.7,18.5,6.9,26.3,11.6c3.1,1.8,6.4,4.3,10,4.6c1.6,0.1,3.2-0.2,4.7-0.7
			c3.4-1.1,3.4-1.7,2.3-4.8c-1.4-3.8-3.2-8.4-6.4-10.9c-2.6-2.1-6.1-2.4-8.7-4.6c-7.4-6.1-0.7-11.9,6.1-13.8
			c7.1-2,16.4-1.6,21.2-8.2c3.9-5.5,4-13.5,4.6-20c0.9-9.7,0.3-19.2-1.5-28.8c-1.9-9.9-5-19.3-7.3-29.1c-0.7-2.9-0.8-7-3.4-9
			C171,842.7,166.2,844.2,163.4,845.8z M145.7,919.3c3.4,1.7,6.9,1.5,10.4,2c7.4,1.2,2.3,8.4-2.4,10c-6,2.1-12.8-0.1-16-5.7
			c-1.5-2.6-4.2-10.5,1.3-10.4C141.3,915.3,143.8,918.4,145.7,919.3z M166.3,897.7c1.1,4.8,2.6,10.8-2.4,13.8
			c-3.4,2.1-11.9,3.9-14.4-0.4c-2.7-4.7,2.9-6.7,5.8-9.1c4.1-3.4,2.6-6.2,1-10.6c-1-2.7-6.8-16-3.4-18
			C158.9,869.8,165.5,894.6,166.3,897.7z M629.8,780.2c-21.6,3.4-39.8,15.4-57.1,28.2c-18.6,13.8-34.1,31.3-52.7,45
			c-7.6,5.6-14.7,9.5-23.6,12.1c-8.5,2.5-7.4,9-3.5,15.8c2.6,4.6,6,8.7,8.6,13.3c2.2,4,3.9,8.6,7.3,11.7c4.1,3.8,5.6-0.2,9.3-3
			c5.2-4,10.5-7.8,16.1-11.1c14.9-8.8,34-15.2,43.8-30.4c3.3-5.1,3-14.5,11.4-12.8c3.6,0.7,6.8,3.1,10,4.7c4.6,2.3,9.5,4.2,14.2,6.2
			c10.8,4.6,21.4,9.2,33.1,11.1c1.8,0.3,8.9,1.9,9.2-1.3c0.3-3-8.7-6.9-10.6-8c-4.1-2.2-8.3-4.3-12.5-6.3c-6-2.8-13.1-5.1-17.8-10.1
			c-3.1-3.4-6.6-13.7,0.3-15.2c3.3-0.7,6.5,2.1,9.4,3.2c4.4,1.7,9.4,2.3,14.1,2.9c9.5,1.2,19.1,2.1,28.7,2.6
			c4.1,0.2,14.4,4,17.9,1.3c2.4-1.9-2.1-4.3-4.2-5.7c-3.2-2.1-6.8-3.7-10.4-5.1c-7-2.6-14.3-4.2-21.6-6.1c-4.8-1.2-9.2-2.6-14.2-2.7
			c-4.2-0.1-7.6,0-10.4-3.5c-5.3-6.3-4.2-15.5,5.1-15c10.1,0.6,19.7-2,29.4-4.4c11.2-2.7,22-6.8,32.5-11.3
			C672.7,777.7,650.3,776.9,629.8,780.2z M138.5,875.7c3.6,2.2,7.9,21.5,1.5,21.1c-5.2-0.3-6.2-8.3-6.6-12.1
			C133.1,881.6,132.8,872.2,138.5,875.7z M194.9,895.6c7.9-3.1,5.7-11.8-2.3-12.4L194.9,895.6z M166.9,870.5
			c4.7,0.5,6.5,9.3,6.5,12.8c0,3.6-1.9,9.8-6.4,5.6c-3.2-3-2.8-9.4-3.8-13.3C166.2,874.8,162.8,870.1,166.9,870.5z M68.2,781.6
			c-1.2,1-3.5,3.8-3.3,5.5c0.3,2.5,2.4,1.8,3.8,3c3.5,3.1,0.3,9-0.8,12.6c-1.4,4.6-1.8,9,3.6,10.5c6.4,1.8,9.4,0.5,7.7,8.5
			c-0.5,2.4-0.7,4.1-0.3,6.3c0.4,2.4,0.8,2.6,2.7,3.7c3.6,2.1,9,1.4,8,6.5c-0.4,2-4.1,13.3,2.1,8.7c4.4-3.3,6.2-13.2,3-17.5
			c-2.1-2.9-6.8-1.7-8.6-4.2c-1.4-2,0.3-4.8,0.6-6.9c0.4-2.6,0.7-6.1-0.7-8.5c-2.2-3.8-7-2.9-10.5-4c1.7-5.9,4.9-11.9,2-17.9
			C75.8,784.2,72.4,778.2,68.2,781.6z"/>
	</g>
</g>
</svg>
