<?xml version="1.0" encoding="UTF-8"?>
<svg width="2677px" height="2634px" viewBox="0 0 2677 2634" version="1.1" xmlns="http://www.w3.org/2000/svg" xmlns:xlink="http://www.w3.org/1999/xlink">
    <!-- Generator: Sketch 64 (93537) - https://sketch.com -->
    <title>15</title>
    <desc>Created with Sketch.</desc>
    <g id="Page-1" stroke="none" stroke-width="1" fill="none" fill-rule="evenodd">
        <g id="15" transform="translate(4.000000, 4.000000)">
            <circle id="Oval" stroke="#000000" stroke-width="8" cx="2372.71" cy="1387.77" r="5.33102"></circle>
            <circle id="Oval" stroke="#000000" stroke-width="8" cx="659.72" cy="1891.31" r="5.33102"></circle>
            <circle id="Oval" stroke="#000000" stroke-width="8" cx="256.401" cy="2047.77" r="5.33102"></circle>
            <circle id="Oval" stroke="#000000" stroke-width="8" cx="265.732" cy="167.044" r="5.33102"></circle>
            <circle id="Oval" stroke="#000000" stroke-width="8" cx="1729.78" cy="432.938" r="5.33102"></circle>
            <circle id="Oval" stroke="#000000" stroke-width="8" cx="1013.59" cy="2177.1" r="5.33102"></circle>
            <line x1="2334.02" y1="594.561" x2="2363.38" y2="615.914" id="Path" stroke="#000000" stroke-width="8" stroke-linecap="round"></line>
            <path d="M385.785,1949.9 C352.985,1995.33 310.61,2071.48 307.422,2131.98 M659.72,2473.66 C642.033,2474.7 625.563,2474.42 610.236,2472.98 M307.689,2149.59 C308.289,2156.25 309.493,2162.64 311.378,2168.67 M315.187,2178.43 C318.35,2185.07 322.531,2191.17 327.859,2196.59 M333.164,2201.45 C341.203,2208.08 351.337,2213.44 363.87,2217.26 C476.074,2251.45 558.912,2138 586.305,2077.01 C605.568,2029.94 604.933,1957.79 526.039,2002.5 C447.146,2047.2 421.579,2194.25 418.657,2262.19 C418.408,2313.41 440.435,2398.18 515.641,2443.48 M531.075,2451.84 C534.682,2453.59 538.394,2455.25 542.216,2456.82 M550.711,2460.09 C557.301,2462.47 564.195,2464.58 571.404,2466.4 M580.058,2468.42 C587.181,2469.94 594.596,2471.18 602.312,2472.13" id="Shape" stroke="#6983FF" stroke-width="8" stroke-linecap="round"></path>
            <path d="M1899.22,324.745 C1981.31,198.104 2146.79,-14.936 2151.98,146.034 C2158.48,347.246 2094.31,250.263 2114.45,191.303 C2139.58,117.757 2218.31,65.666 2307.09,112.57" id="Path" stroke="#000000" stroke-width="8" stroke-linecap="round"></path>
            <line x1="1755.84" y1="874.22" x2="1785.2" y2="895.58" id="Path" stroke="#000000" stroke-width="8" stroke-linecap="round"></line>
            <line x1="1262.86" y1="24.309" x2="1294.5" y2="6.52" id="Path" stroke="#000000" stroke-width="8" stroke-linecap="round"></line>
            <line x1="827.08" y1="2411.63" x2="856.44" y2="2432.98" id="Path" stroke="#000000" stroke-width="8" stroke-linecap="round"></line>
            <line x1="30.551" y1="1550.27" x2="0.762" y2="1571.02" id="Path" stroke="#000000" stroke-width="8" stroke-linecap="round"></line>
            <line x1="1744.68" y1="2316.24" x2="1714.89" y2="2336.99" id="Path" stroke="#000000" stroke-width="8" stroke-linecap="round"></line>
            <line x1="2490.13" y1="1807.38" x2="2460.34" y2="1828.13" id="Path" stroke="#000000" stroke-width="8" stroke-linecap="round"></line>
            <line x1="146.226" y1="661.006" x2="125.176" y2="631.428" id="Path" stroke="#000000" stroke-width="8" stroke-linecap="round"></line>
            <line x1="2506.39" y1="289.314" x2="2540.18" y2="276.039" id="Path" stroke="#000000" stroke-width="8" stroke-linecap="round"></line>
            <line x1="2361.82" y1="0.184" x2="2381.57" y2="30.646" id="Path" stroke="#000000" stroke-width="8" stroke-linecap="round"></line>
            <line x1="0.5" y1="2351.62" x2="20.248" y2="2382.08" id="Path" stroke="#000000" stroke-width="8" stroke-linecap="round"></line>
            <path d="M1663.77,990.98 L1872.17,995.92 M1428.28,2172.46 L1918.75,2182.07 M2034.41,999.77 L2252.52,1004.95 L2252.52,2188.43 L2012.69,2183.78" id="Shape" stroke="#6983FF" stroke-width="8"></path>
            <path d="M1880.27,1134.63 L2095.88,1134.63 M1755.88,1265.93 L2059.95,1265.93 M1666.05,1398.61 L2073.77,1398.61 M1681.25,1521.62 L2036.45,1521.62 M1666.05,1683.33 L2036.45,1683.33 M1708.89,1833.98 L1961.82,1849.18" id="Shape" stroke="#6983FF" stroke-width="8" stroke-linecap="round"></path>
            <path d="M416.228,536.953 L668.891,277.867 M416.228,536.953 L439.781,2031.52 L1082.29,2031.52 M416.228,536.953 L668.891,581.918 L668.891,277.867 M668.891,277.867 L1664.55,277.867 L1664.55,1836.34 M1549.31,2031.52 L1384.7,2031.52" id="Shape" stroke="#000000" stroke-width="8"></path>
            <path d="M575.132,1305 L615.044,1412.59 L660.163,1244.26 M550.837,952.73 C553.613,959.67 594.798,1056.27 615.044,1103.7 L660.163,930.17 M550.837,685.489 L615.044,782.667 L660.163,647.312 M703.546,793.08 L1257.55,793.08 M1458.41,793.08 L1295.69,793.08 M719.164,1091.56 L840.64,1091.56 M719.164,1396.97 L1133.91,1396.97" id="Shape" stroke="#000000" stroke-width="8" stroke-linecap="round"></path>
            <path d="M891.29,1326.66 C778.28,1250.81 756.09,947.61 757.626,793.979 C787.97,910.74 857.18,1158.33 891.29,1214.56 C925.4,1270.79 998.45,1247.2 1030.71,1228.38 L1165.53,1167.31 C1161.09,1203.35 1155.77,1246.51 1150,1293.5 C1085.7,1340.6 957.63,1371.18 891.29,1326.66 Z" id="Path" fill="#000000" fill-rule="nonzero"></path>
            <path d="M1532.18,1275.72 L1663.52,1838.86 L1576.84,1197.84 L1663.52,1266.3 L1663.52,1301.01 C1695.84,1321.25 1741.53,1332.46 1792.98,1328.01 C1928.02,1316.35 1958.78,1141.59 1997.25,1047.42 L2068.86,996.17 L2042.42,996.17 L1982.78,1032.96 L1970.25,1056.1 C1937.68,1114.35 1856.63,1239.82 1792.98,1275.72 C1729.33,1311.62 1680.16,1260.76 1663.52,1230.85 L1532.18,1095.81 L1532.18,1275.72 Z" id="Path" fill="#000000" fill-rule="nonzero"></path>
            <path d="M1143.18,1322.55 C1124.67,1471.95 1087.08,1801.11 1080.5,1932.69 C1073.93,2064.27 1105.18,2308.23 1121.62,2413.77 L1485.52,2378.82 L1360.11,1951.19 L1377.6,1719.11 M1390.95,1542.06 L1377.6,1719.11 M1377.6,1719.11 C1382.05,1803.32 1439.06,1993.54 1631.49,2080.71 C1823.92,2167.88 1963.86,2195.16 2009.78,2197.9 L2083.79,1951.19 L1660.27,1836.06 L1543.26,1283.42" id="Shape" stroke="#000000" stroke-width="8" stroke-linecap="round"></path>
            <polygon id="Path" fill="#000000" fill-rule="nonzero" points="1373.13 2622.56 1458.41 2622.56 1415.36 2383.89 1260.16 2401.03 1273.84 2444.35 928.88 2622.56 1327.3 2622.56 1365.49 2570.37"></polygon>
            <polygon id="Path" fill="#000000" fill-rule="nonzero" points="2285.34 2124.87 2311.21 2043.6 2068.51 2011.3 2021.92 2165.3 2085.41 2165.41 2150.56 2548.18 2271.44 2168.53 2233.29 2116.31"></polygon>
            <path d="M1248.98,855.28 L1248.39,852.02 L1245.08,851.98 C1240.88,851.94 1235.77,851.62 1231.33,851.27 C1241.23,842.32 1247.26,830.76 1250.55,817.44 C1251.97,811.708 1253.93,805.941 1256.45,800.236 C1265.53,779.661 1280.1,763.998 1296.17,755.227 C1312.22,746.459 1329.55,744.66 1344.55,751.284 C1359.56,757.909 1369.91,771.922 1374.25,789.693 C1378.59,807.47 1376.84,828.79 1367.76,849.37 C1358.68,869.95 1344.1,885.61 1328.04,894.38 C1311.99,903.15 1294.66,904.95 1279.65,898.32 C1263.37,891.13 1252.56,875.23 1248.98,855.28 Z" id="Path" stroke="#000000" stroke-width="8"></path>
            <path d="M1314.44,835.41 C1284.6,809.788 1284.81,771.026 1288.08,757.287 C1337.49,711.864 1408.32,737.601 1415.45,793.725 C1415.45,827.8 1419.16,845.47 1431.27,854.19 C1459.69,868.99 1459,899.4 1457.24,916.7 L1357.75,922.62 L1351.28,870.86 C1341.32,868.91 1334.18,861.61 1331.53,857.56 C1341.42,852.67 1353.29,838.97 1343.49,827.8 C1333.69,816.62 1313.11,834.24 1314.44,835.41 Z" id="Path" fill="#000000" fill-rule="nonzero"></path>
            <path d="M1264.09,810.801 C1269.06,805.965 1282.21,799.108 1295.09,810.366" id="Path" stroke="#000000" stroke-width="8" stroke-linecap="round"></path>
            <path d="M1268.5,871.98 C1272.38,872.26 1281.29,870.75 1285.86,862.51" id="Path" stroke="#000000" stroke-width="8" stroke-linecap="round"></path>
            <path d="M1265.59,828.05 C1269.77,822.1 1281.28,813.46 1293.97,826.48" id="Path" stroke="#000000" stroke-width="8" stroke-linecap="round"></path>
            <circle id="Oval" fill="#000000" fill-rule="nonzero" transform="translate(1279.740000, 826.550000) rotate(-3.161260) translate(-1279.740000, -826.550000) " cx="1279.74" cy="826.55" r="5.80739"></circle>
            <path d="M1318.99,845.36 C1320.85,841.95 1326.94,835.27 1336.34,835.88" id="Path" stroke="#000000" stroke-width="8" stroke-linecap="round"></path>
            <path d="M1327.56,838.51 C1330.12,839.19 1334.26,842.43 1330.3,849.91" id="Path" stroke="#000000" stroke-width="8" stroke-linecap="round"></path>
            <path d="M1291.62,905.01 L1294.03,929.52 M1352.58,878.66 L1357.96,925.03" id="Shape" stroke="#000000" stroke-width="8" stroke-linecap="round"></path>
            <path d="M1297.2,924.29 L1290.18,900.72 C1312.68,902.88 1335.22,893.39 1343.68,888.37 C1326.74,911.03 1305.63,921.76 1297.2,924.29 Z" id="Path" fill="#000000" fill-rule="nonzero"></path>
            <line x1="153.013" y1="2625.34" x2="2668.7" y2="2625.34" id="Path" stroke="#000000" stroke-width="8" stroke-linecap="round"></line>
            <path d="M1962.39,1066.34 L1980.92,1033.66 L2134.82,939.98 C2149.97,931.31 2150.03,922.34 2135.95,920.26 C2148.09,917.37 2159.63,896.73 2137.03,887.54 C2146.68,882.9 2151.71,867.71 2136.46,861.02 C2134.88,860.32 2130.45,859.18 2125.41,860.17 C2120.37,861.16 2106.1,866.12 2099.6,868.47 L2125.95,843.81 C2134.11,836.17 2126.91,816.8 2109.2,825.91 L1999.81,899.39 L2024.51,837.09 C2028.29,824.75 2015.5,803.71 1996.52,824.12 C1986.97,833.05 1918.4,923.35 1885.31,967.39 L1868.91,1011.65" id="Path" stroke="#000000" stroke-width="8"></path>
            <path d="M2136.64,920.06 L2051.84,961.46 M2138.04,887.09 L2045.86,931.68 M2102.98,865.9 L2046.46,907.12" id="Shape" stroke="#000000" stroke-width="8" stroke-linecap="round"></path>
            <path d="M889.74,748.768 C888.11,746.588 802.33,589.826 759.639,511.716 C751.576,496.964 732.391,501.634 740.566,532.151 C748.74,562.668 759.412,593.003 763.726,604.356 C721.038,619.115 641.249,670.295 663.592,756.941 C686.752,848.9 692.883,723.563 709.231,722.882 C722.31,722.337 770.99,796.223 793.7,833.23" id="Path" stroke="#000000" stroke-width="8"></path>
            <path d="M1289.25,901.63 C1268.41,899.9 1254.73,877.14 1250.49,865.97 C1253.7,864.42 1252.79,864.3 1223.51,876.21 C1194.24,888.11 1194.57,919.41 1198.4,933.57 L1292.97,926.13 L1289.25,901.63 Z" id="Path" fill="#000000" fill-rule="nonzero"></path>
            <path d="M1180.24,930.47 L1489.56,913.62 C1539.76,919.9 1590.15,963.6 1609.07,984.67 L1751.89,1153.33 L1868.86,984.67 L1980.4,1050.93 C1952.74,1109.55 1881.1,1237.12 1815.82,1278.47 C1750.53,1319.82 1691.59,1277.56 1670.28,1251.26 L1536.98,1107.08 L1551.94,1302.95 L1138.45,1327.43 L1154.77,1177.81 L1018.78,1251.26 C961.26,1278.47 909.11,1269.33 860.97,1194.14 C814.61,1121.71 768.14,894.63 755.048,787.037 L904.09,740.078 L961.26,1050.93 C982.02,1039.02 1024.43,1008.71 1045.66,994.42 C1108.14,949.09 1147.47,933.22 1180.24,930.47 Z" id="Path" fill="#47dcc1" fill-rule="nonzero"></path>
            <line x1="1155.51" y1="1161.73" x2="1157.49" y2="1095.84" id="Path" stroke="#000000" stroke-width="8" stroke-linecap="round"></line>
            <line x1="1536.3" y1="1088.8" x2="1538.28" y2="1022.92" id="Path" stroke="#000000" stroke-width="8" stroke-linecap="round"></line>
            <line x1="1749.16" y1="1227.61" x2="1751.14" y2="1161.73" id="Path" stroke="#000000" stroke-width="8" stroke-linecap="round"></line>
            <line x1="899.02" y1="1093.63" x2="951.96" y2="1054.37" id="Path" stroke="#000000" stroke-width="8" stroke-linecap="round"></line>
            <polygon id="Path" fill="#000000" fill-rule="nonzero" points="1136.13 1369.39 1140.68 1327.11 1252.19 1320.52 1252.19 1363.63"></polygon>
            <polygon id="Path" fill="#000000" fill-rule="nonzero" points="1547.81 1303.04 1557.66 1348.47 1486.93 1351.98 1483.02 1306.88"></polygon>
            <polygon id="Path" fill="#000000" fill-rule="nonzero" points="1285.09 1362 1285.09 1318.58 1455.45 1308.5 1455.45 1353.54"></polygon>
            <path d="M1162.95,1387.77 C1165.95,1411.71 1182.53,1453.65 1224.35,1481.02 M1295.72,1505.96 C1266.31,1502.39 1242.86,1493.13 1224.35,1481.02 M1224.35,1481.02 L1127.33,1909.12 L1313.53,2394.85" id="Shape" stroke="#000000" stroke-width="8" stroke-linecap="round"></path>
            <polyline id="Path" stroke="#000000" stroke-width="8" points="1384.77 1650.06 1616.3 1996.55 2071.27 1986.83"></polyline>
        </g>
    </g>
</svg>