<?xml version="1.0" encoding="utf-8"?>
<!-- Generator: Adobe Illustrator 24.1.0, SVG Export Plug-In . SVG Version: 6.00 Build 0)  -->
<svg version="1.1" id="Layer_1" xmlns="http://www.w3.org/2000/svg" xmlns:xlink="http://www.w3.org/1999/xlink" x="0px" y="0px"
	 viewBox="0 0 1347.6 1347.6" style="enable-background:new 0 0 1347.6 1347.6;" xml:space="preserve">
<style type="text/css">
	.st0{fill:#47DCC1;}
	.st1{fill:#FFFFFF;}
</style>
<circle class="st0" cx="673.8" cy="673.8" r="637.7"/>
<g>
	<g transform="translate(0.000000,511.000000) scale(0.100000,-0.100000)">
		<path class="st1" d="M2460.4,593.1C2498.6,375.3,2596,157.5,2733.5-24C2852-180.7,8293.3-5610.6,8407.8-5688.9
			c122.3-80.2,301.9-160.4,454.8-202.5c183.4-49.7,517.7-45.9,710.7,7.6c317.1,89.8,475.7,200.6,892.2,626.7
			c343.9,351.5,424.1,466.2,510.1,724.1c47.7,139.5,51.6,179.6,51.6,439.4s-3.9,299.9-51.6,439.4
			c-109,326.7,40.1,168.2-2974.8,3186.8C6472.5,1064.9,5169.5,2356.5,5106.4,2402.4c-382.1,273.2-834.9,340.1-1289.6,189.1
			c-229.3-76.4-401.2-196.8-703.1-492.9c-403.1-395.5-544.5-598-624.8-899.9C2452.7,1064.9,2435.5,723,2460.4,593.1z M2852,1177.7
			c66.8,191.1,143.3,290.4,481.5,632.4c244.6,246.5,328.6,319,437.6,376.4c324.8,171.9,664.8,175.8,1001.1,11.5
			c114.7-55.4,345.8-282.7,2900.2-2831.4c1578.1-1576.2,2804.7-2816.1,2844.8-2875.4c152.8-227.4,212-550.3,151-812
			c-63.1-269.4-120.4-351.5-496.8-729.8c-368.7-368.7-454.7-429.8-699.2-494.8c-282.8-76.5-628.6-11.6-871.3,160.4
			c-84,61.1-1108.1,1071.8-2875.4,2842.9C3367.9-180.7,2974.2,220.4,2924.6,319.8c-59.2,112.7-110.8,269.4-126.1,382.1
			C2781.3,814.7,2808.1,1047.7,2852,1177.7z"/>
		<path class="st1" d="M4888.7-1380.5c32.5-59.2,2046.2-2071,2103.5-2103.5c36.3-19.1,64.9-21.1,95.5-9.6
			c24.8,9.6,376.3,351.5,785.2,760.4c638.2,640,739.4,750.8,739.4,798.6c0,49.7-137.5,194.9-1054.6,1112
			C6627.3,107.8,6495.4,233.9,6443.8,233.9s-150.9-93.6-817.7-760.4c-416.5-418.4-758.5-771.9-758.5-787.1
			C4867.6-1328.9,4877.2-1359.5,4888.7-1380.5z M5299.4-1067.2c66.8,53.5,131.8,49.7,189.1-7.6c87.9-86,43.9-225.4-76.4-250.3
			C5270.8-1351.9,5186.7-1157,5299.4-1067.2z M5748.4-1518.1c57.3,47.7,143.3,42,198.7-15.3c93.6-93.6,30.6-238.9-105.1-238.9
			C5702.6-1772.2,5641.4-1607.9,5748.4-1518.1z M5937.5-836c84,84,208.3,59.2,250.3-51.6c22.9-63.1,7.6-108.9-53.5-158.6
			c-64.9-51.6-131.8-47.8-187.2,9.6C5887.8-979.3,5884.1-889.5,5937.5-836z M6159.2-2011c17.2,43.9,114.7,87.9,168.2,74.5
			c112.7-26.8,149-160.4,68.8-246.5C6283.4-2301.4,6100-2167.7,6159.2-2011z M6195.5-176.9c80.3,82.2,198.7,57.3,236.9-47.7
			c30.5-91.7-17.2-181.5-103.2-191.1c-74.5-7.6-103.2,0-143.3,42C6134.3-316.3,6136.3-234.2,6195.5-176.9z M6399.9-1281.2
			c22.9,24.8,63.1,43.9,91.7,43.9c160.5,0,214-215.9,68.8-277C6411.4-1577.3,6287.2-1399.6,6399.9-1281.2z M6655.9-2423.7
			c66.8,53.5,131.8,49.7,189.1-7.6c87.9-86,43.9-225.4-76.4-250.3C6627.3-2708.3,6543.2-2513.5,6655.9-2423.7z M6617.7-654.5
			c21.1,55.4,110.8,87.9,177.6,64.9c108.9-38.2,135.6-175.8,47.7-244.6C6715.2-935.4,6558.5-811.2,6617.7-654.5z M6837.4-1745.5
			c30.6,38.2,55.4,49.7,112.7,49.7c135.6,0,198.7-145.2,105.1-238.8c-74.6-76.4-183.4-59.2-235,38.2
			C6787.7-1839.1,6793.5-1802.8,6837.4-1745.5z M7093.4-2889.8c28.7,30.5,68.8,47.7,105.1,47.7c72.6,0,152.8-74.5,152.8-139.5
			c0-80.3-68.8-147.1-152.8-147.1C7062.9-3128.7,6999.8-2983.5,7093.4-2889.8z M7066.7-1116.9c22.9,49.7,89.8,89.8,147.1,89.8
			c61.1-1.9,137.5-89.8,137.5-162.4c0-45.9-105.1-143.3-152.8-143.3c-47.8,0-152.8,97.5-152.8,141.4
			C7045.7-1176.1,7055.3-1141.7,7066.7-1116.9z M7303.6-2183c57.3,59.2,126.1,61.1,193,3.9c38.2-32.5,51.6-63.1,51.6-109
			c0-74.5-76.4-152.8-151-152.8c-66.8,0-141.4,80.3-141.4,152.8C7255.8-2251.8,7273-2211.7,7303.6-2183z M7546.2-1529.5
			c72.6,78.3,206.3,51.6,240.7-47.8c22.9-65-11.5-162.4-63.1-183.4C7567.2-1820,7433.5-1649.9,7546.2-1529.5z M7995.2-1978.6
			c42,47.7,114.7,57.3,175.8,26.8c91.8-47.7,107-156.7,30.6-231.1c-59.2-61.1-143.3-63.1-194.9-3.9
			C7937.9-2112.3,7936-2047.4,7995.2-1978.6z"/>
	</g>
</g>
</svg>
