<?xml version="1.0" encoding="utf-8"?>
<!-- Generator: Adobe Illustrator 24.1.0, SVG Export Plug-In . SVG Version: 6.00 Build 0)  -->
<svg version="1.1" id="Layer_1" xmlns="http://www.w3.org/2000/svg" xmlns:xlink="http://www.w3.org/1999/xlink" x="0px" y="0px"
	 viewBox="0 0 512 512" style="enable-background:new 0 0 512 512;" xml:space="preserve">
<style type="text/css">
	.st0{fill:#98F5FD;}
	.st1{opacity:0.41;fill:#239DC9;}
	.st2{fill:#E35F47;}
</style>
<path class="st0" d="M433.9,491.5H78.1c-31.8,0-57.6-25.8-57.6-57.6V78.1c0-31.8,25.8-57.6,57.6-57.6h355.7
	c31.8,0,57.6,25.8,57.6,57.6v355.7C491.5,465.7,465.7,491.5,433.9,491.5z"/>
<path class="st1" d="M491.5,78.1v355.7c0,31.8-25.8,57.6-57.6,57.6H78.1c-31.8,0-57.6-25.8-57.6-57.6"/>
<path class="st2" d="M464,184h-10.9c-5-3-10.4-5.4-16-7.2c-17.6-5.8-40.8-8.8-69.1-8.8s-51.5,3-69.1,8.8
	c-14.1,4.7-20.2,9.9-22.2,11.9l0,0c-13.1-6.3-28.3-6.3-41.4,0l0,0c-2-2-8.2-7.2-22.2-11.9c-17.6-5.8-40.8-8.8-69.1-8.8
	s-51.5,3-69.1,8.8c-5.6,1.8-11,4.2-16,7.2H48c-8.8,0-16,7.2-16,16s7.2,16,16,16h0.2c1,45.5,6.4,72.8,18.1,92.2
	c7.3,12.6,18.5,22.4,31.9,28c12.2,5.2,27.2,7.8,45.8,7.8c24.1,0,58.5-3.7,77.7-35.8c9.7-16.1,15.1-37.7,17.2-70.5
	c0.7-1.8,1.1-3.8,1.1-5.7c0-8.8,7.2-16,16-16c8.8,0,16,7.2,16,16c0,2,0.4,3.9,1.1,5.7c2.1,32.8,7.5,54.4,17.2,70.5
	c7.3,12.6,18.5,22.4,31.9,28c12.2,5.2,27.2,7.8,45.8,7.8c24.1,0,58.5-3.7,77.7-35.8c11.7-19.5,17.1-46.8,18.1-92.2h0.2
	c8.8,0,16-7.2,16-16S472.8,184,464,184L464,184z"/>
</svg>
